<?xml version="1.0" standalone="no"?>
<!DOCTYPE svg PUBLIC "-//W3C//DTD SVG 20010904//EN"
 "http://www.w3.org/TR/2001/REC-SVG-20010904/DTD/svg10.dtd">
<svg version="1.0" xmlns="http://www.w3.org/2000/svg"
 width="320.000000pt" height="320.000000pt" viewBox="0 0 320.000000 320.000000"
 preserveAspectRatio="xMidYMid meet">

<g transform="translate(0.000000,320.000000) scale(0.100000,-0.100000)"
fill="#000000" stroke="none">
<path d="M0 1600 l0 -1600 1600 0 1600 0 0 1600 0 1600 -1600 0 -1600 0 0
-1600z m1630 455 l0 -84 -42 -13 c-58 -17 -123 -82 -138 -137 -29 -111 37
-206 180 -256 75 -26 127 -62 138 -95 15 -41 -2 -86 -39 -105 -39 -21 -133
-18 -199 5 -30 11 -58 19 -61 20 -6 0 -29 -78 -29 -99 0 -13 75 -41 135 -49
l50 -7 3 -88 3 -87 -286 0 -285 0 0 328 c0 189 5 346 11 372 30 132 138 268
260 327 83 41 124 51 222 52 l77 1 0 -85z m510 -455 l0 -540 -210 0 -210 0 0
89 0 89 46 16 c99 33 153 104 154 198 0 102 -42 150 -197 223 -63 30 -116 62
-122 73 -18 34 -13 67 15 93 22 20 35 24 92 24 40 0 84 -7 110 -18 33 -13 44
-14 47 -5 22 71 26 89 21 96 -5 9 -59 25 -123 37 l-33 7 0 79 0 79 205 0 205
0 0 -540z"/>
</g>
</svg>
